<?xml version="1.0" encoding="UTF-8" standalone="no"?>
<!-- Generator: Adobe Illustrator 14.0.0, SVG Export Plug-In . SVG Version: 6.00 Build 43363)  -->
<svg
   xmlns:dc="http://purl.org/dc/elements/1.1/"
   xmlns:cc="http://creativecommons.org/ns#"
   xmlns:rdf="http://www.w3.org/1999/02/22-rdf-syntax-ns#"
   xmlns:svg="http://www.w3.org/2000/svg"
   xmlns="http://www.w3.org/2000/svg"
   xmlns:sodipodi="http://sodipodi.sourceforge.net/DTD/sodipodi-0.dtd"
   xmlns:inkscape="http://www.inkscape.org/namespaces/inkscape"
   version="1.1"
   id="Layer_1"
   x="0px"
   y="0px"
   width="64px"
   height="64px"
   viewBox="0 0 64 64"
   enable-background="new 0 0 64 64"
   xml:space="preserve"
   sodipodi:version="0.32"
   inkscape:version="0.46"
   sodipodi:docname="chrome.svg"
   inkscape:output_extension="org.inkscape.output.svg.inkscape"><metadata
   id="metadata239"><rdf:RDF><cc:Work
       rdf:about=""><dc:format>image/svg+xml</dc:format><dc:type
         rdf:resource="http://purl.org/dc/dcmitype/StillImage" /></cc:Work></rdf:RDF></metadata><defs
   id="defs237"><inkscape:perspective
     sodipodi:type="inkscape:persp3d"
     inkscape:vp_x="0 : 32 : 1"
     inkscape:vp_y="0 : 1000 : 0"
     inkscape:vp_z="64 : 32 : 1"
     inkscape:persp3d-origin="32 : 21.333333 : 1"
     id="perspective241" /></defs><sodipodi:namedview
   inkscape:window-height="878"
   inkscape:window-width="1440"
   inkscape:pageshadow="2"
   inkscape:pageopacity="0.0"
   guidetolerance="10.0"
   gridtolerance="10.0"
   objecttolerance="10.0"
   borderopacity="1.0"
   bordercolor="#666666"
   pagecolor="#ffffff"
   id="base"
   showgrid="false"
   inkscape:zoom="6.1208931"
   inkscape:cx="99.875355"
   inkscape:cy="18.137184"
   inkscape:window-x="-5"
   inkscape:window-y="-3"
   inkscape:current-layer="Layer_1" />
<g
   id="Layer_2"
   transform="matrix(0.2649348,0,0,0.275473,-1.6748859,-3.2688892)">
	<g
   id="g4">
		<circle
   cx="128.075"
   cy="126.26"
   r="109"
   id="circle6"
   sodipodi:cx="128.075"
   sodipodi:cy="126.26"
   sodipodi:rx="109"
   sodipodi:ry="109"
   style="fill:#4e4a4a" />
		
			<linearGradient
   id="SVGID_1_"
   gradientUnits="userSpaceOnUse"
   x1="324.56931"
   y1="-144.0381"
   x2="427.23499"
   y2="-261.37109"
   gradientTransform="matrix(1,0,0,-1,-256,-90)">
			<stop
   offset="0"
   style="stop-color: rgb(222, 217, 217);"
   id="stop9" />
			<stop
   offset="1"
   style="stop-color: rgb(106, 99, 99);"
   id="stop11" />
		</linearGradient>
		<path
   d="M 67.243,45.813 C 67.243,45.813 59.076,50.73 61.951,61.48 C 64.826,72.23 70.076,78.23 74.201,83.355 C 78.326,88.48 82.493,95.897 81.826,100.98 C 81.159,106.063 79.451,126.399 92.576,139.627 C 105.701,152.854 115.451,153.229 115.451,153.229 L 112.201,155.604 L 71.604,188.86 L 83.076,205.647 L 110.909,229.479 L 91.076,225.813 L 89.659,231.063 L 118.576,231.479 L 106.576,211.979 L 86.076,193.147 C 86.076,193.147 82.492,189.354 89.659,184.104 C 96.826,178.854 131.826,152.061 131.826,152.061 L 170.659,94.48 C 170.659,94.48 173.784,94.605 179.659,94.98 C 185.534,95.355 231.201,115.73 231.201,115.73 C 231.201,115.73 230.423,100.351 229.659,92.98 C 229.343,89.918 230.638,90.28 232.493,94.647 C 234.347,99.013 233.243,106.647 233.243,106.647 L 231.993,89.314 L 225.076,79.981 L 223.326,87.981 C 223.326,87.981 224.701,96.106 225.076,99.106 C 225.451,102.106 224.076,103.106 219.701,101.106 C 215.326,99.106 200.826,94.356 191.201,93.106 C 181.576,91.856 166.826,91.231 166.826,91.231 L 91.826,92.231 L 87.826,95.148 C 87.826,95.148 88.763,91.71 84.763,85.044 C 80.763,78.378 67.243,45.813 67.243,45.813 z"
   id="path13"
   style="fill:url(#SVGID_1_)" />
		<path
   d="M 74.794,89.323 C 74.794,89.323 79.357,97.417 78.888,103.792 C 78.451,109.73 78.075,134.979 102.076,149.354 C 108.31,153.088 113.675,154.51 113.675,154.51 L 114.243,156.813 L 100.264,157.917 L 65.076,122.98 L 65.451,94.73 L 70.576,89.23 L 73.326,88.605 L 74.794,89.323 z"
   id="path15"
   style="fill:#007a3f" />
		<path
   d="M 99.409,231.063 C 99.409,231.063 110.909,232.063 115.659,231.563 C 120.409,231.063 139.242,237.063 139.242,237.063 C 139.242,237.063 136.491,241.201 130.575,242.172 C 124.658,243.147 93.992,234.647 93.992,234.647 L 99.409,231.063 z"
   id="path17"
   style="fill:#005a2b" />
		<path
   d="M 114.243,156.813 C 114.243,156.813 77.504,183.219 72.576,192.647 C 67.648,202.076 81.075,214.315 89.659,221.481 C 98.243,228.647 110.826,240.354 134.451,240.854 C 134.451,240.854 118.826,245.729 95.326,236.729 C 71.826,227.729 45.576,177.729 45.576,177.729 L 114.243,156.813 z"
   id="path19"
   style="fill:#00663f" />
		<polygon
   points="65.258,38.479 54.201,46.979 53.076,39.979 61.576,36.854 65.258,38.479 "
   id="polygon21"
   style="fill:#262626" />
		<path
   d="M 65.451,35.896 C 65.451,35.896 59.534,33.438 55.451,37.813 C 51.368,42.188 49.41,59.813 67.243,78.313 C 67.243,78.313 54.659,61.315 54.993,47.813 C 55.326,34.313 65.826,38.73 65.826,38.73 L 65.451,35.896 z"
   id="path23"
   style="fill:#007a3f" />
		
			<radialGradient
   id="SVGID_2_"
   cx="351.82419"
   cy="-188.47951"
   r="175.0517"
   gradientTransform="matrix(1,0,0,-1,-256,-90)"
   gradientUnits="userSpaceOnUse">
			<stop
   offset="0.0765"
   style="stop-color: rgb(141, 219, 146);"
   id="stop26" />
			<stop
   offset="0.1633"
   style="stop-color: rgb(119, 206, 124);"
   id="stop28" />
			<stop
   offset="0.3431"
   style="stop-color: rgb(62, 171, 69);"
   id="stop30" />
			<stop
   offset="0.5021"
   style="stop-color: rgb(7, 138, 15);"
   id="stop32" />
			<stop
   offset="0.581"
   style="stop-color: rgb(16, 140, 24);"
   id="stop34" />
			<stop
   offset="0.7085"
   style="stop-color: rgb(40, 146, 47);"
   id="stop36" />
			<stop
   offset="0.7148"
   style="stop-color: rgb(41, 146, 48);"
   id="stop38" />
		</radialGradient>
		<path
   d="M 122.201,241.104 C 102.076,238.979 84.201,221.979 77.201,214.604 C 70.201,207.229 60.951,199.354 72.576,187.854 C 84.201,176.354 114.243,156.813 114.243,156.813 L 114.243,156.813 C 92.028,151.371 75.575,131.039 75.575,107.146 C 75.575,102.972 76.293,99.364 76.67,95.386 C 76.909,92.855 74.701,87.605 67.826,79.23 C 60.951,70.855 54.55,60.185 53.263,50.167 C 51.825,38.979 59.534,35.479 59.534,35.479 C 52.993,35.729 41.576,46.979 41.576,46.979 C 7.826,78.729 -4.091,131.646 19.243,177.646 C 42.575,223.646 85.576,238.812 106.076,242.48 C 126.576,246.146 134.451,240.853 134.451,240.853 C 130.7,241.916 122.201,241.104 122.201,241.104 z"
   id="path40"
   style="fill:url(#SVGID_2_)" />
		<path
   d="M 238.139,114.566 L 238.139,114.566 C 243.535,118.209 245.077,118.98 243.577,103.98 C 242.077,88.98 228.452,67.48 228.452,67.48 L 228.481,67.625 C 232.686,75.469 240.11,90.977 241.411,104.814 C 242.402,115.375 241.773,116.59 238.139,114.566 z"
   id="path42"
   style="fill:#af8513" />
		<path
   d="M 231.075,82.604 L 233.075,121.354 L 246.325,121.354 C 246.325,121.354 250.825,96.104 225.075,63.104 L 231.075,82.604 z"
   id="path44"
   style="fill:#591f00" />
		<path
   d="M 81.887,83.542 L 84.762,85.042 C 84.762,85.042 100.741,63.146 122.242,61.313 C 143.742,59.48 160.741,72.146 166.408,78.313 C 172.075,84.48 174.909,87.146 183.242,87.146 C 191.575,87.146 219.38,91.603 229.463,96.103 L 235.541,93.762 L 205.408,65.313 L 103.243,39.979 L 81.887,83.542 z"
   id="path46"
   style="fill:#8f0404" />
		
			<radialGradient
   id="SVGID_3_"
   cx="386.72559"
   cy="-214.623"
   r="116.2404"
   gradientTransform="matrix(1,0,0,-1,-256,-90)"
   gradientUnits="userSpaceOnUse">
			<stop
   offset="0.6157"
   style="stop-color: rgb(246, 0, 0);"
   id="stop49" />
			<stop
   offset="0.7247"
   style="stop-color: rgb(231, 5, 5);"
   id="stop51" />
			<stop
   offset="0.9171"
   style="stop-color: rgb(196, 18, 18);"
   id="stop53" />
			<stop
   offset="1"
   style="stop-color: rgb(221, 120, 120);"
   id="stop55" />
		</radialGradient>
		<path
   d="M 81.887,83.542 C 81.887,83.542 90.7,65.729 111.075,59.479 C 131.45,53.229 153.325,56.229 170.45,76.854 L 172.2,78.729 C 172.2,78.729 175.075,81.917 183.263,82.229 C 191.451,82.541 217.576,86.312 228.242,91.562 L 233.283,93.729 C 233.283,93.729 236.824,95.354 236.158,90.937 C 235.492,86.52 232.226,66.574 214.575,47.979 C 192.742,24.979 157.325,11.979 130.325,12.229 C 103.325,12.479 82.742,18.979 65.408,29.646 C 65.408,29.646 64.575,40.396 66.325,47.396 C 68.075,54.396 76.408,72.563 80.408,78.563 C 80.409,78.563 82.002,80.854 81.887,83.542 z"
   id="path57"
   style="fill:url(#SVGID_3_)" />
		
			<radialGradient
   id="SVGID_4_"
   cx="383.82419"
   cy="-189.31149"
   r="52.106899"
   gradientTransform="matrix(1,0,0,-1,-256,-90)"
   gradientUnits="userSpaceOnUse">
			<stop
   offset="0"
   style="stop-color: rgb(177, 221, 244);"
   id="stop60" />
			<stop
   offset="0.0742"
   style="stop-color: rgb(169, 215, 243);"
   id="stop62" />
			<stop
   offset="0.1904"
   style="stop-color: rgb(147, 199, 241);"
   id="stop64" />
			<stop
   offset="0.3332"
   style="stop-color: rgb(110, 173, 238);"
   id="stop66" />
			<stop
   offset="0.4"
   style="stop-color: rgb(91, 159, 236);"
   id="stop68" />
			<stop
   offset="0.5273"
   style="stop-color: rgb(11, 133, 209);"
   id="stop70" />
			<stop
   offset="0.6182"
   style="stop-color: rgb(19, 117, 179);"
   id="stop72" />
			<stop
   offset="0.6537"
   style="stop-color: rgb(22, 111, 168);"
   id="stop74" />
			<stop
   offset="0.716"
   style="stop-color: rgb(30, 96, 139);"
   id="stop76" />
			<stop
   offset="0.7971"
   style="stop-color: rgb(43, 71, 92);"
   id="stop78" />
			<stop
   offset="0.8424"
   style="stop-color: rgb(51, 56, 63);"
   id="stop80" />
			<stop
   offset="1"
   style="stop-color: rgb(54, 50, 51);"
   id="stop82" />
		</radialGradient>
		<ellipse
   cx="128.075"
   cy="110.792"
   rx="46.25"
   ry="42.75"
   id="ellipse84"
   style="fill:url(#SVGID_4_)"
   sodipodi:cx="128.075"
   sodipodi:cy="110.792"
   sodipodi:rx="46.25"
   sodipodi:ry="42.75" />
		
			<linearGradient
   id="SVGID_5_"
   gradientUnits="userSpaceOnUse"
   x1="287.08109"
   y1="-168.96831"
   x2="311.81119"
   y2="-301.85059"
   gradientTransform="matrix(1,0,0,-1,-256,-90)">
			<stop
   offset="0"
   style="stop-color: rgb(255, 255, 255);"
   id="stop87" />
			<stop
   offset="1"
   style="stop-color: rgb(255, 255, 255); stop-opacity: 0.53;"
   id="stop89" />
		</linearGradient>
		<path
   enable-background="new    "
   d="M 51.493,45.813 C 51.493,45.813 18.827,83.146 19.159,123.979 C 19.487,164.213 39.076,185.979 59.326,200.645 C 77.716,213.965 64.993,214.813 55.826,207.313 C 55.826,207.313 4.811,172.186 17.159,107.98 C 23.827,73.313 51.493,45.813 51.493,45.813 z"
   id="path91"
   style="opacity:0.32000002;fill:url(#SVGID_5_)" />
		
			<linearGradient
   id="SVGID_6_"
   gradientUnits="userSpaceOnUse"
   x1="303.5654"
   y1="-153.9297"
   x2="321.5654"
   y2="-194.5968"
   gradientTransform="matrix(1,0,0,-1,-256,-90)">
			<stop
   offset="0"
   style="stop-color: rgb(255, 255, 255);"
   id="stop94" />
			<stop
   offset="0.517"
   style="stop-color: rgb(255, 255, 255); stop-opacity: 0.53;"
   id="stop96" />
		</linearGradient>
		<path
   enable-background="new    "
   d="M 64.055,76.104 C 64.055,76.104 60.555,77.542 57.242,73.854 C 53.929,70.166 48.554,75.729 45.992,76.854 C 43.43,77.979 40.554,74.916 40.617,72.416 C 40.68,69.916 39.617,63.728 43.43,59.166 C 47.243,54.604 52.305,50.541 52.305,50.541 C 52.305,50.541 51.471,61.792 64.055,76.104 z"
   id="path98"
   style="opacity:0.5;fill:url(#SVGID_6_)" />
		
			<linearGradient
   id="SVGID_7_"
   gradientUnits="userSpaceOnUse"
   x1="329.18951"
   y1="-367.64551"
   x2="329.18939"
   y2="-263.64569"
   gradientTransform="matrix(1,0,0,-1,-256,-90)">
			<stop
   offset="0"
   style="stop-color: rgb(255, 255, 255);"
   id="stop101" />
			<stop
   offset="1"
   style="stop-color: rgb(255, 255, 255); stop-opacity: 0.53;"
   id="stop103" />
		</linearGradient>
		<path
   enable-background="new    "
   d="M 11.928,159.467 C 13.797,165.602 16.217,171.682 19.242,177.647 C 42.574,223.647 85.575,238.813 106.075,242.481 C 126.575,246.147 134.45,240.854 134.45,240.854 C 130.7,241.917 122.2,241.104 122.2,241.104 C 105.825,239.229 88.908,226.729 81.908,219.354 C 81.901,219.346 86.658,223.479 81.908,219.354 C 49.555,217.084 22.928,174.439 11.928,159.467 z"
   id="path105"
   style="opacity:0.3;fill:url(#SVGID_7_)" />
		<path
   enable-background="new    "
   d="M 71.346,57.354 C 71.346,57.354 75.346,51.354 72.221,45.291 C 70.069,41.114 66.721,40.791 65.721,41.666 C 65.721,41.667 66.721,51.854 71.346,57.354"
   id="path107"
   style="opacity:0.5;fill:#ffffff" />
		<path
   enable-background="new    "
   d="M 79.159,41.313 C 79.159,41.313 85.243,37.063 87.409,35.146 C 89.577,33.229 87.827,29.729 85.493,30.063 C 83.159,30.397 77.993,31.688 74.868,34.98 C 72.378,37.604 72.597,40.584 74.347,41.918 C 76.097,43.252 78.243,41.979 79.159,41.313 z"
   id="path109"
   style="opacity:0.5;fill:#ffffff" />
		
			<linearGradient
   id="SVGID_8_"
   gradientUnits="userSpaceOnUse"
   x1="365.08691"
   y1="-116.2905"
   x2="436.26791"
   y2="-153.5437"
   gradientTransform="matrix(1,0,0,-1,-256,-90)">
			<stop
   offset="0"
   style="stop-color: rgb(255, 255, 255); stop-opacity: 0.7;"
   id="stop112" />
			<stop
   offset="1"
   style="stop-color: rgb(255, 255, 255); stop-opacity: 0;"
   id="stop114" />
		</linearGradient>
		<path
   enable-background="new    "
   d="M 183.492,38.479 C 126.742,-3.021 65.249,38.204 65.249,38.204 C 65.249,38.204 117.992,-12.021 195.742,37.479 L 183.492,38.479 z"
   id="path116"
   style="opacity:0.32000002;fill:url(#SVGID_8_)" />
		
			<linearGradient
   id="SVGID_9_"
   gradientUnits="userSpaceOnUse"
   x1="279.0625"
   y1="-183.9019"
   x2="299.7944"
   y2="-194.75211"
   gradientTransform="matrix(1,0,0,-1,-256,-90)">
			<stop
   offset="0"
   style="stop-color: rgb(255, 255, 255); stop-opacity: 0.7;"
   id="stop119" />
			<stop
   offset="1"
   style="stop-color: rgb(255, 255, 255); stop-opacity: 0;"
   id="stop121" />
		</linearGradient>
		<path
   enable-background="new    "
   d="M 54.952,38.071 C 54.935,37.587 54.284,37.855 54.284,37.855 C -12.341,89.48 14.346,162.042 14.346,162.042 C -2.841,78.229 54.502,38.745 54.502,38.745 C 54.502,38.745 54.967,38.524 54.952,38.071 z"
   id="path123"
   style="opacity:0.6;fill:url(#SVGID_9_)" />
		
			<linearGradient
   id="SVGID_10_"
   gradientUnits="userSpaceOnUse"
   x1="357.2529"
   y1="-164.50101"
   x2="356.90781"
   y2="-217.6514"
   gradientTransform="matrix(1,0,0,-1,-256,-90)">
			<stop
   offset="0"
   style="stop-color: rgb(255, 255, 255); stop-opacity: 0.7;"
   id="stop126" />
			<stop
   offset="1"
   style="stop-color: rgb(255, 255, 255); stop-opacity: 0;"
   id="stop128" />
		</linearGradient>
		<path
   enable-background="new    "
   d="M 109.493,79.229 C 109.493,79.229 95.493,90.854 98.118,117.979 C 98.118,117.979 97.43,121.667 94.368,116.854 C 91.306,112.041 90.868,85.604 109.493,79.229 z"
   id="path130"
   style="opacity:0.6;fill:url(#SVGID_10_)" />
		
			<linearGradient
   id="SVGID_11_"
   gradientUnits="userSpaceOnUse"
   x1="360.1279"
   y1="-174.2256"
   x2="381.99631"
   y2="-168.7585"
   gradientTransform="matrix(1,0,0,-1,-256,-90)">
			<stop
   offset="0"
   style="stop-color: rgb(255, 255, 255); stop-opacity: 0.7;"
   id="stop133" />
			<stop
   offset="1"
   style="stop-color: rgb(255, 255, 255); stop-opacity: 0;"
   id="stop135" />
		</linearGradient>
		<path
   enable-background="new    "
   d="M 128.118,75.854 C 128.118,75.854 114.493,79.229 110.055,85.104 C 105.617,90.979 103.888,84.791 108.826,81.229 C 113.764,77.667 121.118,74.854 128.118,75.854 z"
   id="path137"
   style="opacity:0.6;fill:url(#SVGID_11_)" />
		<path
   d="M 179.117,91.854 L 177.492,94.854 C 177.492,94.854 186.825,122.812 171.408,141.979 L 173.887,142.333 L 184.887,121.333 L 185.887,99.666 L 179.117,91.854 z"
   id="path139"
   style="fill:#af8513" />
		
			<radialGradient
   id="SVGID_12_"
   cx="384.82709"
   cy="-208.9785"
   r="125.9904"
   gradientTransform="matrix(1,0,0,-1,-256,-90)"
   gradientUnits="userSpaceOnUse">
			<stop
   offset="0.182"
   style="stop-color: rgb(255, 230, 80);"
   id="stop142" />
			<stop
   offset="0.703"
   style="stop-color: rgb(255, 219, 0);"
   id="stop144" />
			<stop
   offset="1"
   style="stop-color: rgb(213, 179, 25);"
   id="stop146" />
		</radialGradient>
		<path
   d="M 129.408,159.229 L 86.075,193.147 C 86.075,193.147 75.824,200.313 82.492,207.563 C 89.158,214.813 111.825,239.229 138.575,241.479 C 165.325,243.729 209.575,222.479 229.575,191.479 C 249.575,160.479 262.075,105.98 225.575,62.48 C 225.575,62.48 239.576,85.313 241.409,104.813 C 243.242,124.313 239.575,111.979 221.575,106.146 C 203.575,100.313 191.242,97.479 186.742,95.979 C 182.242,94.479 179.7,92.479 179.075,91.916 C 179.075,91.916 186.304,114.218 178.7,129.729 C 169.2,149.104 154.741,157.479 129.408,159.229 z"
   id="path148"
   style="fill:url(#SVGID_12_)" />
		<g
   id="g150"
   style="opacity:0.63999999">
			<path
   d="M 103.169,164.258 C 109.552,159.863 114.242,156.813 114.242,156.813 C 92.027,151.371 75.574,131.039 75.574,107.146 C 75.574,102.972 76.292,99.364 76.669,95.386 C 76.844,93.546 75.713,90.261 72.446,85.39 C 69.375,92.647 67.675,100.616 67.675,108.98 C 67.675,133.447 82.206,154.539 103.169,164.258 z"
   id="path152"
   style="fill:#ffffff" />
			<path
   d="M 184.486,82.295 C 174.507,61.981 153.492,47.98 129.173,47.98 C 107.96,47.98 89.255,58.635 78.199,74.843 C 79.016,76.33 79.768,77.603 80.407,78.563 C 80.407,78.563 81.97,80.792 81.886,83.542 C 81.886,83.542 90.699,65.729 111.074,59.479 C 131.449,53.229 153.324,56.229 170.449,76.854 L 172.199,78.729 C 172.199,78.729 175.074,81.917 183.262,82.229 C 183.631,82.244 184.049,82.267 184.486,82.295 z"
   id="path154"
   style="fill:#ffffff" />
			<path
   d="M 179.075,91.917 C 179.075,91.917 186.304,114.219 178.7,129.729 C 169.2,149.104 154.741,157.479 129.408,159.229 L 117.17,168.809 C 121.053,169.571 125.066,169.979 129.174,169.979 C 163.141,169.979 190.674,142.668 190.674,108.98 C 190.674,104.806 190.249,100.731 189.445,96.793 C 188.365,96.486 187.447,96.214 186.742,95.98 C 182.242,94.479 179.7,92.479 179.075,91.917 z"
   id="path156"
   style="fill:#ffffff" />
		</g>
		
			<linearGradient
   id="SVGID_13_"
   gradientUnits="userSpaceOnUse"
   x1="428.91989"
   y1="-367.64499"
   x2="428.91989"
   y2="-263.64551"
   gradientTransform="matrix(1,0,0,-1,-256,-90)">
			<stop
   offset="0"
   style="stop-color: rgb(255, 255, 255);"
   id="stop159" />
			<stop
   offset="1"
   style="stop-color: rgb(255, 255, 255); stop-opacity: 0.53;"
   id="stop161" />
		</linearGradient>
		<path
   enable-background="new    "
   d="M 229.575,191.479 C 236.404,180.895 242.355,167.571 245.783,152.881 C 230.594,182.027 200.755,219.299 146.008,225.647 C 128.834,227.637 113.554,226.805 100.057,224.133 C 110.327,232.26 123.827,240.238 138.575,241.479 C 165.325,243.729 209.575,222.479 229.575,191.479 z"
   id="path163"
   style="opacity:0.3;fill:url(#SVGID_13_)" />
		
			<linearGradient
   id="SVGID_14_"
   gradientUnits="userSpaceOnUse"
   x1="341.9707"
   y1="-167.76759"
   x2="410.49091"
   y2="-167.1665"
   gradientTransform="matrix(1,0,0,-1,-256,-90)">
			<stop
   offset="0"
   style="stop-color: rgb(41, 80, 107);"
   id="stop166" />
			<stop
   offset="0.0677"
   style="stop-color: rgb(48, 77, 104);"
   id="stop168" />
			<stop
   offset="0.1639"
   style="stop-color: rgb(66, 69, 96);"
   id="stop170" />
			<stop
   offset="0.2766"
   style="stop-color: rgb(97, 56, 84);"
   id="stop172" />
			<stop
   offset="0.297"
   style="stop-color: rgb(103, 53, 81);"
   id="stop174" />
			<stop
   offset="0.5515"
   style="stop-color: rgb(77, 126, 190);"
   id="stop176" />
			<stop
   offset="0.7455"
   style="stop-color: rgb(99, 55, 83);"
   id="stop178" />
			<stop
   offset="1"
   style="stop-color: rgb(41, 80, 107);"
   id="stop180" />
		</linearGradient>
		<path
   d="M 89.583,87.094 C 90.325,86.755 93.944,84.891 108.993,75.167 C 126.66,63.75 133.826,73.834 140.66,75.834 C 147.494,77.834 151.243,73.834 151.243,73.834 C 151.243,73.834 151.148,73.768 150.978,73.658 C 144.224,70.091 136.411,68.042 128.076,68.042 C 112.017,68.042 97.875,75.609 89.583,87.094 z"
   id="path182"
   style="fill:url(#SVGID_14_)" />
		<path
   enable-background="new    "
   d="M 127.999,69.188 C 153.18,69.188 173.645,88.52 174.221,111.667 C 174.231,111.334 174.248,111.002 174.248,110.667 C 174.248,87.057 153.541,67.917 127.998,67.917 C 102.455,67.917 81.748,87.057 81.748,110.667 C 81.748,111.002 81.768,111.334 81.775,111.667 C 82.353,88.52 102.819,69.188 127.999,69.188 z"
   id="path184"
   style="opacity:0.15;fill:#ffffff" />
		
			<linearGradient
   id="SVGID_15_"
   gradientUnits="userSpaceOnUse"
   x1="415.9873"
   y1="-229.39549"
   x2="402.32071"
   y2="-172.39461"
   gradientTransform="matrix(1,0,0,-1,-256,-90)">
			<stop
   offset="0"
   style="stop-color: rgb(52, 53, 57);"
   id="stop187" />
			<stop
   offset="0.3212"
   style="stop-color: rgb(41, 80, 107);"
   id="stop189" />
			<stop
   offset="1"
   style="stop-color: rgb(199, 221, 133);"
   id="stop191" />
		</linearGradient>
		<path
   enable-background="new    "
   d="M 155.688,86.479 C 155.688,86.479 169.688,103.979 159.022,118.479 C 148.354,132.979 143.52,137.312 142.854,142.146 C 142.854,142.146 172.854,132.978 171.354,116.646 C 169.854,100.313 166.521,93.979 155.688,86.479"
   id="path193"
   style="opacity:0.6;fill:url(#SVGID_15_)" />
		
			<linearGradient
   id="SVGID_16_"
   gradientUnits="userSpaceOnUse"
   x1="363.08499"
   y1="-235.29491"
   x2="363.61719"
   y2="-212.6716"
   gradientTransform="matrix(1,0,0,-1,-256,-90)">
			<stop
   offset="0"
   style="stop-color: rgb(52, 53, 57);"
   id="stop196" />
			<stop
   offset="0.3212"
   style="stop-color: rgb(41, 80, 107);"
   id="stop198" />
			<stop
   offset="1"
   style="stop-color: rgb(73, 109, 78);"
   id="stop200" />
		</linearGradient>
		<path
   d="M 84.864,98.979 C 84.864,98.979 85.989,118.729 91.239,122.729 C 91.239,122.729 99.447,142.889 130.781,141.055 L 127.739,146.729 C 127.739,146.729 103.989,152.979 93.864,137.604 C 83.739,122.229 83.739,112.604 84.864,98.979 z"
   id="path202"
   style="fill:url(#SVGID_16_)" />
		
			<linearGradient
   id="SVGID_17_"
   gradientUnits="userSpaceOnUse"
   x1="492.69629"
   y1="-215.0396"
   x2="499.52979"
   y2="-223.5401"
   gradientTransform="matrix(1,0,0,-1,-256,-90)">
			<stop
   offset="0"
   style="stop-color: rgb(244, 221, 128);"
   id="stop205" />
			<stop
   offset="1"
   style="stop-color: rgb(244, 221, 128); stop-opacity: 0.3;"
   id="stop207" />
		</linearGradient>
		<path
   d="M 247.033,140.166 C 247.033,140.166 243.783,125.526 234.564,125.932 L 234.658,124.541 C 234.658,124.542 244.283,123.792 247.033,140.166 z"
   id="path209"
   style="fill:url(#SVGID_17_)" />
		
			<linearGradient
   id="SVGID_18_"
   gradientUnits="userSpaceOnUse"
   x1="491.7793"
   y1="-206.5625"
   x2="467.19501"
   y2="-274.9928"
   gradientTransform="matrix(1,0,0,-1,-256,-90)">
			<stop
   offset="0"
   style="stop-color: rgb(244, 221, 128);"
   id="stop212" />
			<stop
   offset="1"
   style="stop-color: rgb(244, 221, 128); stop-opacity: 0.3;"
   id="stop214" />
		</linearGradient>
		<path
   d="M 234.564,125.932 L 235.72,125.932 C 234.941,137.146 228.888,176.139 200.491,194.146 C 200.492,194.146 230.689,173.182 234.564,125.932 z"
   id="path216"
   style="fill:url(#SVGID_18_)" />
		<path
   d="M 188.91,226.063 C 188.91,226.063 192.492,217.063 181.242,206.313 C 181.242,206.313 212.492,188.313 222.326,166.979 C 232.158,145.647 233.492,128.979 233.158,123.313 C 233.158,123.313 244.908,121.417 247.158,139.791 C 247.158,139.791 244.783,125.416 234.658,124.541 C 234.658,124.541 233.197,149.624 222.533,169.104 C 213.158,186.229 197.783,196.479 183.533,206.604 C 183.533,206.604 193.16,217.52 188.91,226.063 z"
   id="path218"
   style="fill:#d1ab1a" />
		
			<linearGradient
   id="SVGID_19_"
   gradientUnits="userSpaceOnUse"
   x1="440.0918"
   y1="-293.00241"
   x2="445.4176"
   y2="-309.92001"
   gradientTransform="matrix(1,0,0,-1,-256,-90)">
			<stop
   offset="0"
   style="stop-color: rgb(244, 221, 128);"
   id="stop221" />
			<stop
   offset="1"
   style="stop-color: rgb(244, 221, 128); stop-opacity: 0.3;"
   id="stop223" />
		</linearGradient>
		<path
   d="M 184.596,205.822 C 184.596,205.822 193.221,216.353 189.565,224.541 C 189.565,224.541 192.346,217.853 183.502,206.603 L 184.596,205.822 z"
   id="path225"
   style="fill:url(#SVGID_19_)" />
		
			<linearGradient
   id="SVGID_20_"
   gradientUnits="userSpaceOnUse"
   x1="414.5322"
   y1="-303.73389"
   x2="426.1514"
   y2="-323.94119"
   gradientTransform="matrix(1,0,0,-1,-256,-90)">
			<stop
   offset="0"
   style="stop-color: rgb(244, 221, 128);"
   id="stop228" />
			<stop
   offset="1"
   style="stop-color: rgb(244, 221, 128); stop-opacity: 0.3;"
   id="stop230" />
		</linearGradient>
		<path
   d="M 157.033,236.604 C 157.033,236.604 151.408,226.604 150.408,221.979 C 150.408,221.979 166.658,217.979 172.533,215.104 C 172.533,215.104 176.658,219.854 179.533,229.604 C 179.533,229.604 179.658,220.354 172.658,213.104 L 147.908,220.854 C 147.908,220.854 153.658,233.229 157.033,236.604 z"
   id="path232"
   style="fill:url(#SVGID_20_)" />
		<path
   d="M 158.242,238.063 C 158.242,238.063 150.492,232.065 146.826,219.981 C 146.826,219.981 162.492,216.979 172.742,212.147 C 172.742,212.147 180.992,219.897 179.992,232.063 C 179.992,232.063 179.492,221.147 172.658,213.731 C 172.658,213.731 156.408,220.229 148.908,221.147 C 148.908,221.146 151.326,229.98 158.242,238.063 z"
   id="path234"
   style="fill:#d1ab1a" />
	</g>
</g>
</svg>