<?xml version="1.0" encoding="UTF-8" standalone="no"?>
<!-- Generator: Adobe Illustrator 13.0.0, SVG Export Plug-In . SVG Version: 6.00 Build 14948)  -->

<svg
   xmlns:dc="http://purl.org/dc/elements/1.1/"
   xmlns:cc="http://creativecommons.org/ns#"
   xmlns:rdf="http://www.w3.org/1999/02/22-rdf-syntax-ns#"
   xmlns:svg="http://www.w3.org/2000/svg"
   xmlns="http://www.w3.org/2000/svg"
   xmlns:xlink="http://www.w3.org/1999/xlink"
   xmlns:sodipodi="http://sodipodi.sourceforge.net/DTD/sodipodi-0.dtd"
   xmlns:inkscape="http://www.inkscape.org/namespaces/inkscape"
   version="1.0"
   id="Layer_1"
   x="0px"
   y="0px"
   width="343.245"
   height="115.005"
   viewBox="0 0 343.245 115.005"
   enable-background="new 0 0 343.245 115.005"
   xml:space="preserve"
   inkscape:version="0.47 r22583"
   sodipodi:docname="genero_logo.svg"
   style="display:inline"><metadata
   id="metadata1090"><rdf:RDF><cc:Work
       rdf:about=""><dc:format>image/svg+xml</dc:format><dc:type
         rdf:resource="http://purl.org/dc/dcmitype/StillImage" /><dc:title /></cc:Work></rdf:RDF></metadata><defs
   id="defs1088"><inkscape:perspective
     sodipodi:type="inkscape:persp3d"
     inkscape:vp_x="0 : 57.502499 : 1"
     inkscape:vp_y="0 : 1000 : 0"
     inkscape:vp_z="343.245 : 57.502499 : 1"
     inkscape:persp3d-origin="171.6225 : 38.334999 : 1"
     id="perspective203" /><linearGradient
     id="linearGradient5555"><stop
       style="stop-color:#e30eff;stop-opacity:1;"
       offset="0"
       id="stop5557" /><stop
       style="stop-color:#780055;stop-opacity:1;"
       offset="1"
       id="stop5559" /></linearGradient><linearGradient
     id="linearGradient5536"><stop
       id="stop5538"
       offset="0"
       style="stop-color:#e3b6ff;stop-opacity:1;" /><stop
       id="stop5540"
       offset="1"
       style="stop-color:#780055;stop-opacity:1;" /></linearGradient><radialGradient
     gradientUnits="userSpaceOnUse"
     gradientTransform="matrix(61.0007,0,0,-60.6164,9347.0068,17973.955)"
     r="1"
     cy="295"
     cx="-152.3291"
     id="SVGID_2_">
		<stop
   id="stop248"
   style="stop-color:#FF04CA"
   offset="0" />
		<stop
   id="stop250"
   style="stop-color:#230015"
   offset="1" />
	</radialGradient><radialGradient
     gradientUnits="userSpaceOnUse"
     gradientTransform="matrix(61.0007,0,0,-60.6164,9347.0068,17973.955)"
     r="1"
     cy="295"
     cx="-152.3291"
     id="SVGID_42_">
		<stop
   id="stop584"
   style="stop-color:#FFFFFF"
   offset="0" />
		<stop
   id="stop586"
   style="stop-color:#F6F6F6"
   offset="0.15844116" />
		<stop
   id="stop588"
   style="stop-color:#DDDCDD"
   offset="0.33449414" />
		<stop
   id="stop590"
   style="stop-color:#B5B3B5"
   offset="0.41454136" />
		<stop
   id="stop592"
   style="stop-color:#7D7A7D"
   offset="0.7718637" />
		<stop
   id="stop594"
   style="stop-color:#363237"
   offset="0.95081866" />
		<stop
   id="stop596"
   style="stop-color:#221E23"
   offset="1" />
	</radialGradient><radialGradient
     gradientUnits="userSpaceOnUse"
     gradientTransform="matrix(61.0007,0,0,-60.6164,9347.0068,17973.955)"
     r="1"
     cy="295"
     cx="-152.3291"
     id="SVGID_61_">
		<stop
   id="stop785"
   style="stop-color:#FF0FE3"
   offset="0" />
		<stop
   id="stop787"
   style="stop-color:#F80EDC"
   offset="0.1189" />
		<stop
   id="stop789"
   style="stop-color:#E30CC8"
   offset="0.2958" />
		<stop
   id="stop791"
   style="stop-color:#C209A7"
   offset="0.5089" />
		<stop
   id="stop793"
   style="stop-color:#940579"
   offset="0.7502" />
		<stop
   id="stop795"
   style="stop-color:#5D0042"
   offset="1" />
	</radialGradient><radialGradient
     gradientUnits="userSpaceOnUse"
     gradientTransform="matrix(61.0007,0,0,-60.6164,9347.0068,17973.955)"
     r="1"
     cy="295"
     cx="-152.3291"
     id="SVGID_65_">
		<stop
   id="stop829"
   style="stop-color:#FF0FE3"
   offset="0" />
		<stop
   id="stop831"
   style="stop-color:#F80EDC"
   offset="0.1189" />
		<stop
   id="stop833"
   style="stop-color:#E30CC8"
   offset="0.2958" />
		<stop
   id="stop835"
   style="stop-color:#C209A7"
   offset="0.5089" />
		<stop
   id="stop837"
   style="stop-color:#940579"
   offset="0.7502" />
		<stop
   id="stop839"
   style="stop-color:#5D0042"
   offset="1" />
	</radialGradient><radialGradient
     gradientUnits="userSpaceOnUse"
     gradientTransform="matrix(61.0007,0,0,-60.6164,9347.0068,17973.955)"
     r="1"
     cy="295"
     cx="-152.3291"
     id="SVGID_71_">
		<stop
   id="stop905"
   style="stop-color:#FF13EC"
   offset="0" />
		<stop
   id="stop907"
   style="stop-color:#FA12E7"
   offset="0.1373" />
		<stop
   id="stop909"
   style="stop-color:#ED11D9"
   offset="0.3007" />
		<stop
   id="stop911"
   style="stop-color:#D60EC1"
   offset="0.4774" />
		<stop
   id="stop913"
   style="stop-color:#B70A9F"
   offset="0.6635" />
		<stop
   id="stop915"
   style="stop-color:#8F0574"
   offset="0.8549" />
		<stop
   id="stop917"
   style="stop-color:#6C004F"
   offset="1" />
	</radialGradient><radialGradient
     inkscape:collect="always"
     xlink:href="#SVGID_71_"
     id="radialGradient3693"
     gradientUnits="userSpaceOnUse"
     gradientTransform="matrix(61.0007,0,0,-60.6164,9347.0068,17973.955)"
     cx="-152.3291"
     cy="295"
     r="1" /><radialGradient
     inkscape:collect="always"
     xlink:href="#SVGID_65_"
     id="radialGradient3712"
     gradientUnits="userSpaceOnUse"
     gradientTransform="matrix(61.0007,0,0,-60.6164,9347.0068,17973.955)"
     cx="-152.3291"
     cy="295"
     r="1" /><radialGradient
     inkscape:collect="always"
     xlink:href="#SVGID_61_"
     id="radialGradient3725"
     gradientUnits="userSpaceOnUse"
     gradientTransform="matrix(61.0007,0,0,-60.6164,9347.0068,17973.955)"
     cx="-152.3291"
     cy="295"
     r="1" /><linearGradient
     inkscape:collect="always"
     xlink:href="#SVGID_2_"
     id="linearGradient5510"
     x1="64.199532"
     y1="53.983665"
     x2="116.76203"
     y2="53.983665"
     gradientUnits="userSpaceOnUse" /><radialGradient
     inkscape:collect="always"
     xlink:href="#SVGID_42_"
     id="radialGradient5521"
     cx="52.358696"
     cy="19.643412"
     fx="52.358696"
     fy="19.643412"
     r="52.916939"
     gradientTransform="matrix(-1.1571347,0.4557857,-0.4519642,-1.1474327,133.47947,45.843077)"
     gradientUnits="userSpaceOnUse" /><radialGradient
     inkscape:collect="always"
     xlink:href="#linearGradient5536"
     id="radialGradient5534"
     cx="53.986446"
     cy="38.290413"
     fx="53.986446"
     fy="38.290413"
     r="43.382355"
     gradientTransform="matrix(-1.0700005,-0.64104646,0.63712949,-1.063462,75.156215,102.94918)"
     gradientUnits="userSpaceOnUse" /><linearGradient
     inkscape:collect="always"
     xlink:href="#linearGradient5555"
     id="linearGradient5553"
     x1="87.645592"
     y1="105.49635"
     x2="94.162834"
     y2="70.43811"
     gradientUnits="userSpaceOnUse" /></defs><sodipodi:namedview
   pagecolor="#ffffff"
   bordercolor="#666666"
   borderopacity="1"
   objecttolerance="10"
   gridtolerance="10"
   guidetolerance="10"
   inkscape:pageopacity="0"
   inkscape:pageshadow="2"
   inkscape:window-width="1440"
   inkscape:window-height="838"
   id="namedview1086"
   showgrid="false"
   inkscape:zoom="4.449739"
   inkscape:cx="94.617422"
   inkscape:cy="57.502499"
   inkscape:window-x="-2"
   inkscape:window-y="-3"
   inkscape:window-maximized="1"
   inkscape:current-layer="layer2" />
<g
   inkscape:groupmode="layer"
   id="layer2"
   inkscape:label="text"
   style="display:inline"
   sodipodi:insensitive="true"><path
     transform="translate(1.657331e-6,0)"
     id="path1070"
     d="m 186.779,73.219 c -8.514,0 -15.417,-6.902 -15.417,-15.418 0,-8.513 6.903,-15.417 15.417,-15.417 8.515,0 15.418,6.903 15.418,15.417 0,1.08 -0.11,2.135 -0.322,3.15 h -15.37 v -6.248 l 8.766,-0.012 c -1.265,-3.461 -4.59,-5.932 -8.491,-5.932 -4.993,0 -9.043,4.048 -9.043,9.041 0,4.994 4.05,9.041 9.043,9.041 v 6.378 z" /><path
     transform="translate(1.657331e-6,0)"
     id="path1072"
     d="m 258.925,73.219 c -8.514,0 -15.417,-6.902 -15.417,-15.418 0,-8.513 6.903,-15.417 15.417,-15.417 8.514,0 15.417,6.903 15.417,15.417 0,1.08 -0.111,2.135 -0.322,3.15 h -15.37 v -6.248 l 8.766,-0.012 c -1.267,-3.461 -4.591,-5.932 -8.49,-5.932 -4.993,0 -9.043,4.048 -9.043,9.041 0,4.994 4.05,9.041 9.043,9.041 v 6.378 z" /><path
     transform="translate(1.657331e-6,0)"
     id="path1074"
     d="m 151.947,42.266 c -8.516,0 -15.419,6.903 -15.419,15.417 0,8.516 6.903,15.418 15.419,15.418 8.514,0 15.417,-6.902 15.417,-15.418 0,-1.078 -0.113,-2.132 -0.323,-3.15 h -15.08 v 6.248 l 8.476,0.01 c -1.267,3.463 -4.591,5.934 -8.49,5.934 -4.996,0 -9.044,-4.047 -9.044,-9.041 0,-4.994 4.048,-9.041 9.044,-9.041 l 0,-6.377 z" /><path
     transform="translate(1.657331e-6,0)"
     id="path1076"
     d="m 315.335,42.336 c -8.515,0 -15.418,6.903 -15.418,15.417 0,8.516 6.903,15.416 15.418,15.416 8.514,0 15.417,-6.9 15.417,-15.416 0,-8.513 -6.903,-15.417 -15.417,-15.417 m 0,24.459 c -4.993,0 -9.044,-4.049 -9.044,-9.041 0,-4.994 4.051,-9.041 9.044,-9.041 4.991,0 9.04,4.047 9.04,9.041 0,4.992 -4.049,9.041 -9.04,9.041 z" /><path
     transform="translate(1.657331e-6,0)"
     id="path1078"
     d="M 213.556,72.488 V 57.906 c 0,-4.994 4.05,-9.042 9.043,-9.042 4.992,0 9.04,4.049 9.04,9.042 v 14.582 h 6.377 V 57.906 c 0,-8.515 -6.903,-15.418 -15.417,-15.418 -8.515,0 -15.417,6.903 -15.417,15.418 v 14.582 h 6.374 z" /><path
     transform="translate(1.657331e-6,0)"
     id="path1080"
     d="m 295.108,42.488 c -8.514,0 -15.417,6.903 -15.417,15.418 v 14.582 h 6.374 V 57.906 c 0,-4.994 4.048,-9.042 9.043,-9.042 v -6.376 z" /><path
     transform="translate(1.657331e-6,0)"
     id="path1082"
     d="m 334.289,68.678 c 0,2.471 2.009,4.479 4.479,4.479 2.47,0 4.478,-2.008 4.478,-4.479 0,-2.467 -2.008,-4.477 -4.478,-4.477 -2.47,0 -4.479,2.01 -4.479,4.477 z m 1.033,0 c 0,-1.898 1.544,-3.443 3.445,-3.443 1.9,0 3.446,1.545 3.446,3.443 0,1.9 -1.546,3.445 -3.446,3.445 -1.901,0 -3.445,-1.545 -3.445,-3.445 z" /><path
     transform="translate(1.657331e-6,0)"
     id="path1084"
     d="m 340.699,70.688 h -1.332 l -1.01,-1.582 h -0.01 v 1.582 h -1.068 v -4.113 h 1.598 c 0.813,0 1.43,0.387 1.43,1.266 0,0.568 -0.316,1.059 -0.9,1.162 l 1.292,1.685 z m -2.351,-2.268 h 0.104 c 0.35,0 0.741,-0.066 0.741,-0.514 0,-0.448 -0.392,-0.514 -0.741,-0.514 h -0.104 v 1.028 z" /></g><g
   inkscape:groupmode="layer"
   id="layer6"
   inkscape:label="baseCircle"
   style="display:inline"
   sodipodi:insensitive="true"><path
     transform="translate(8.2866544e-6,0)"
     style="fill:#840265;display:inline"
     id="path238"
     d="m 114.17,57.535 c 0,30.941 -25.083,56.024 -56.016,56.024 -30.942,0 -56.025,-25.083 -56.025,-56.024 0,-30.933 25.083,-56.016 56.025,-56.016 30.933,0 56.016,25.083 56.016,56.016" /></g><g
   inkscape:groupmode="layer"
   id="layer17"
   inkscape:label="BottomArc"
   sodipodi:insensitive="true"><path
     style="fill:url(#linearGradient5553);fill-opacity:1;stroke:none"
     d="m 25.844213,103.09419 c 53.788799,4.06385 71.516371,-9.859273 85.173537,-40.00235 -1.75103,18.176165 -9.749,33.645324 -29.439931,44.04753 -14.602078,6.68854 -39.49828,12.24116 -55.733606,-4.04518 z"
     id="path5545"
     transform="translate(-1.657331e-6,0)"
     sodipodi:nodetypes="cccc" /></g><g
   inkscape:groupmode="layer"
   id="layer9"
   inkscape:label="right"
   style="display:inline"><path
     style="fill:url(#linearGradient5510);fill-opacity:1;stroke:none"
     d="m 68.33118,52.394567 41.63435,-8.263306 c 7.36709,7.849954 2.14477,13.410925 0.95346,19.704806 L 96.454658,60.648517 68.33118,52.394567 z"
     id="path5502"
     transform="translate(-1.657331e-6,0)"
     sodipodi:nodetypes="ccccc" /></g><g
   inkscape:groupmode="layer"
   id="layer8"
   inkscape:label="lower"
   style="display:inline"
   sodipodi:insensitive="true"><path
     transform="translate(6.6293236e-6,0)"
     style="fill:url(#radialGradient3725);display:inline"
     id="path797"
     d="m 81.918,52.717 c 0.438,1.826 0.67,3.731 0.67,5.691 0,8.18 -4.037,15.413 -10.226,19.819 0.102,0.081 0.202,0.163 0.303,0.246 9.811,7.731 10.691,16.984 9.756,23.289 0.444,-0.239 0.891,-0.486 1.336,-0.739 18.647,-10.623 25.338,-26.085 27.602,-37.74 -8.61,-4.75 -18.581,-8.379 -29.441,-10.566" /><path
     transform="translate(6.6293236e-6,0)"
     style="fill:url(#radialGradient3712);display:inline"
     id="path841"
     d="m 22.956,100.997 c 4.482,3.52 9.519,6.362 14.959,8.376 -4.441,-2.1 -8.341,-4.675 -12.152,-6.976 -1.058,-0.497 -1.997,-0.97 -2.807,-1.4 M 34.227,65.774 c -9.761,4.189 -18.996,8.777 -27.63,13.721 2.734,6.411 6.628,12.208 11.421,17.128 1.272,1.27 2.606,2.477 3.997,3.618 1.25,0.671 2.494,1.398 3.749,2.156 19.455503,8.48744 39.080701,7.44215 58.209695,-1.13975 C 91.097434,91.550962 93.26117,58.941908 83.064362,54.618888 83.280398,44.898612 56.175937,64.451323 56.010417,57.958833 52.197417,55.138833 35.885,70.305 34.227,65.774"
     sodipodi:nodetypes="ccccccccccccc" /></g><g
   inkscape:groupmode="layer"
   id="layer10"
   inkscape:label="left"
   style="display:inline"
   sodipodi:insensitive="true"><path
     transform="translate(6.6293236e-6,0)"
     style="fill:url(#radialGradient3693);display:inline"
     id="path919"
     d="M 78.029716,53.266494 C 77.654319,49.941439 34.723509,47.973812 2.53,68.549913 3.171,73.887913 6.5845906,80.119575 8.6185906,84.888575 14.429776,77.909666 63.056103,56.379336 73.966663,54.643704 M 2.486,51.178 c -0.113,1.001 -0.2,2.011 -0.259,3.027 0.067,-0.693 0.146,-1.39 0.235,-2.091 0.006,-0.312 0.014,-0.622 0.024,-0.936"
     sodipodi:nodetypes="cccccccc" /></g><g
   inkscape:groupmode="layer"
   id="layer15"
   inkscape:label="upperNew"
   style="opacity:0.91240875;display:inline"
   sodipodi:insensitive="true"><path
     style="opacity:0.4;fill:url(#radialGradient5521);fill-opacity:1;stroke:none"
     d="M 2.7832591,67.881248 C 40.335756,48.123931 76.160304,46.708555 111.31392,62.877129 126.57285,-10.584733 3.1201803,-24.102847 2.7832591,67.881248 z"
     id="path5513"
     transform="translate(-1.657331e-6,0)"
     sodipodi:nodetypes="ccc" /></g><g
   inkscape:groupmode="layer"
   id="layer16"
   inkscape:label="TopArc"
   style="display:inline"
   sodipodi:insensitive="true"><path
     style="fill:url(#radialGradient5534);fill-opacity:1;stroke:none"
     d="M 2.2247361,60.340053 C 4.2246984,42.919419 8.1993844,25.907348 27.332472,12.031498 47.464058,-0.09099701 68.097192,-1.0797069 88.539979,12.667136 43.268286,-0.06895693 13.745098,20.656063 2.2247361,60.340053 z"
     id="path5524"
     transform="translate(-1.657331e-6,0)"
     sodipodi:nodetypes="cccc" /></g><g
   style="display:inline"
   inkscape:label="G2 copy"
   id="g5481"
   inkscape:groupmode="layer"
   sodipodi:insensitive="true"><path
     d="m 91.097911,28.906542 c 0,3.636 -2.943,6.579 -6.579,6.579 -3.627,0 -6.579,-2.943 -6.579,-6.579 0,-3.627 2.952,-6.579 6.579,-6.579 3.636,0 6.579,2.952 6.579,6.579"
     id="path5483"
     style="fill:#7b0055;fill-opacity:1;display:inline" /><path
     d="m 70.523909,77.092542 c 17.415,13.176 8.118,31.085998 8.118,31.085998 0,0 -7.245,3.187 -19.368,4.176 13.815,-2.268 20.808,-25.037998 -0.603,-30.878998 -8.217,-1.448 -0.324,-3.807 -0.324,-3.807 0,0 3.357,-1.962 12.177,-0.576"
     id="path5485"
     style="fill:#7b0056;fill-opacity:1;display:inline" /><path
     d="m 56.699909,33.154542 c -13.428,0 -24.3,10.881 -24.3,24.3 0,13.428 10.872,24.309 24.3,24.309 13.419,0 24.3,-10.881 24.3,-24.309 0,-13.419 -10.881,-24.3 -24.3,-24.3 m 0,39.708 c -8.514,0 -15.408,-6.895 -15.408,-15.408 0,-8.505 6.894,-15.399 15.408,-15.399 8.505,0 15.408,6.894 15.408,15.399 0,8.514 -6.903,15.408 -15.408,15.408"
     id="path5487"
     style="fill:#7b0055;fill-opacity:1;display:inline" /></g><g
   inkscape:groupmode="layer"
   id="layer14"
   inkscape:label="G2"
   style="display:inline"
   sodipodi:insensitive="true"><path
     style="fill:#ffffff;display:inline"
     id="path616"
     d="m 92.687,29.86 c 0,3.636 -2.943,6.579 -6.579,6.579 -3.627,0 -6.579,-2.943 -6.579,-6.579 0,-3.627 2.952,-6.579 6.579,-6.579 3.636,0 6.579,2.952 6.579,6.579"
     transform="translate(8.2866544e-6,0)" /><path
     transform="translate(6.6293236e-6,0)"
     style="fill:#ffffff;display:inline"
     id="path614"
     d="m 72.113,78.046 c 17.415,13.176 8.118,31.086 8.118,31.086 0,0 -7.245,3.187 -19.368,4.176 13.815,-2.268 20.808,-25.038 -0.603,-30.879 -8.217,-1.448 -0.324,-3.807 -0.324,-3.807 0,0 3.357,-1.962 12.177,-0.576" /><path
     transform="translate(6.6293236e-6,0)"
     style="fill:#ffffff;display:inline"
     id="path612"
     d="m 58.289,34.108 c -13.428,0 -24.3,10.881 -24.3,24.3 0,13.428 10.872,24.309 24.3,24.309 13.419,0 24.3,-10.881 24.3,-24.309 0,-13.419 -10.881,-24.3 -24.3,-24.3 m 0,39.708 c -8.514,0 -15.408,-6.895 -15.408,-15.408 0,-8.505 6.894,-15.399 15.408,-15.399 8.505,0 15.408,6.894 15.408,15.399 0,8.514 -6.903,15.408 -15.408,15.408" /></g><g
   inkscape:groupmode="layer"
   id="layer7"
   inkscape:label="OuterCircle"
   style="display:inline"
   sodipodi:insensitive="true"><path
     transform="translate(6.6293236e-6,0)"
     style="fill:#840265;display:inline"
     id="path1068"
     d="m 113.429,56.971 -1.5,0.015 c 0.002,0.189 0.003,0.378 0.003,0.566 0.001,29.819 -24.023,54.147 -53.912,54.45 -0.19,0.002 -0.38,0.003 -0.569,0.003 C 27.633,112.006 3.305,87.979 3.003,58.094 3.001,57.906 3,57.718 3,57.53 2.999,27.708 27.022,3.379 56.913,3.078 c 0.188,-0.002 0.376,-0.003 0.564,-0.003 29.821,-0.001 54.15,24.022 54.452,53.912 l 1.5,-0.016 1.5,-0.016 C 114.608,25.419 88.943,0.076 57.477,0.075 57.279,0.075 57.081,0.076 56.882,0.078 25.345,0.399 0.001,26.063 0,57.53 c 0,0.197 0.001,0.396 0.003,0.595 0.321,31.532 25.984,56.879 57.448,56.88 0.2,0 0.399,-10e-4 0.6,-0.003 31.536,-0.322 56.88,-25.985 56.881,-57.45 0,-0.198 -0.001,-0.397 -0.003,-0.596 l -1.5,0.015 z" /></g></svg>